<?xml version="1.0" encoding="UTF-8" standalone="no"?>
<!DOCTYPE svg PUBLIC "-//W3C//DTD SVG 1.1//EN"
 "http://www.w3.org/Graphics/SVG/1.1/DTD/svg11.dtd">
<!-- Generated by graphviz version 14.1.1 (0)
 -->
<!-- Title: ER Pages: 1 -->
<svg width="341pt" height="598pt"
 viewBox="0.00 0.00 341.00 598.00" xmlns="http://www.w3.org/2000/svg" xmlns:xlink="http://www.w3.org/1999/xlink">
<g id="graph0" class="graph" transform="scale(1 1) rotate(0) translate(4 593.5)">
<title>ER</title>
<polygon fill="white" stroke="none" points="-4,4 -4,-593.5 336.5,-593.5 336.5,4 -4,4"/>
<text xml:space="preserve" text-anchor="middle" x="166.25" y="-570.3" font-family="Arial Bold" font-size="16.00">Bibliotēkas Grāmatu Pārvaldības Sistēma</text>
<text xml:space="preserve" text-anchor="middle" x="166.25" y="-551.55" font-family="Arial Bold" font-size="16.00">Entity&#45;Relationship Diagram</text>
<!-- USER -->
<g id="node1" class="node">
<title>USER</title>
<polygon fill="lightblue" stroke="none" points="110.75,-408 36.75,-408 36.75,-224 110.75,-224 110.75,-408"/>
<polygon fill="darkblue" stroke="none" points="44.75,-382 44.75,-404 102.75,-404 102.75,-382 44.75,-382"/>
<polygon fill="none" stroke="black" points="44.75,-382 44.75,-404 102.75,-404 102.75,-382 44.75,-382"/>
<text xml:space="preserve" text-anchor="start" x="59.5" y="-390.5" font-family="Arial" font-weight="bold" font-size="10.00" fill="white">USER</text>
<polygon fill="none" stroke="black" points="44.75,-360 44.75,-382 102.75,-382 102.75,-360 44.75,-360"/>
<text xml:space="preserve" text-anchor="start" x="49.75" y="-368.5" font-family="Arial" text-decoration="underline" font-size="10.00">PK: id</text>
<polygon fill="none" stroke="black" points="44.75,-338 44.75,-360 102.75,-360 102.75,-338 44.75,-338"/>
<text xml:space="preserve" text-anchor="start" x="49.75" y="-345.5" font-family="Arial" font-size="10.00">name</text>
<polygon fill="none" stroke="black" points="44.75,-316 44.75,-338 102.75,-338 102.75,-316 44.75,-316"/>
<text xml:space="preserve" text-anchor="start" x="49.75" y="-323.5" font-family="Arial" font-size="10.00">email</text>
<polygon fill="none" stroke="black" points="44.75,-294 44.75,-316 102.75,-316 102.75,-294 44.75,-294"/>
<text xml:space="preserve" text-anchor="start" x="49.75" y="-301.5" font-family="Arial" font-size="10.00">password</text>
<polygon fill="none" stroke="black" points="44.75,-272 44.75,-294 102.75,-294 102.75,-272 44.75,-272"/>
<text xml:space="preserve" text-anchor="start" x="49.75" y="-279.5" font-family="Arial" font-size="10.00">role</text>
<polygon fill="none" stroke="black" points="44.75,-250 44.75,-272 102.75,-272 102.75,-250 44.75,-250"/>
<text xml:space="preserve" text-anchor="start" x="49.75" y="-257.5" font-family="Arial" font-size="10.00">created_at</text>
<polygon fill="none" stroke="black" points="44.75,-228 44.75,-250 102.75,-250 102.75,-228 44.75,-228"/>
<text xml:space="preserve" text-anchor="start" x="49.75" y="-235.5" font-family="Arial" font-size="10.00">updated_at</text>
</g>
<!-- LOAN -->
<g id="node3" class="node">
<title>LOAN</title>
<polygon fill="lightblue" stroke="none" points="316,-312 236.75,-312 236.75,-106 316,-106 316,-312"/>
<polygon fill="darkred" stroke="none" points="244.75,-286 244.75,-308 308,-308 308,-286 244.75,-286"/>
<polygon fill="none" stroke="black" points="244.75,-286 244.75,-308 308,-308 308,-286 244.75,-286"/>
<text xml:space="preserve" text-anchor="start" x="262.12" y="-294.5" font-family="Arial" font-weight="bold" font-size="10.00" fill="white">LOAN</text>
<polygon fill="none" stroke="black" points="244.75,-264 244.75,-286 308,-286 308,-264 244.75,-264"/>
<text xml:space="preserve" text-anchor="start" x="249.75" y="-272.5" font-family="Arial" text-decoration="underline" font-size="10.00">PK: id</text>
<polygon fill="none" stroke="black" points="244.75,-242 244.75,-264 308,-264 308,-242 244.75,-242"/>
<text xml:space="preserve" text-anchor="start" x="249.75" y="-250.5" font-family="Arial" font-style="italic" font-size="10.00">FK: user_id</text>
<polygon fill="none" stroke="black" points="244.75,-220 244.75,-242 308,-242 308,-220 244.75,-220"/>
<text xml:space="preserve" text-anchor="start" x="249.75" y="-228.5" font-family="Arial" font-style="italic" font-size="10.00">FK: book_id</text>
<polygon fill="none" stroke="black" points="244.75,-198 244.75,-220 308,-220 308,-198 244.75,-198"/>
<text xml:space="preserve" text-anchor="start" x="249.75" y="-205.5" font-family="Arial" font-size="10.00">borrowed_at</text>
<polygon fill="none" stroke="black" points="244.75,-176 244.75,-198 308,-198 308,-176 244.75,-176"/>
<text xml:space="preserve" text-anchor="start" x="249.75" y="-183.5" font-family="Arial" font-size="10.00">due_date</text>
<polygon fill="none" stroke="black" points="244.75,-154 244.75,-176 308,-176 308,-154 244.75,-154"/>
<text xml:space="preserve" text-anchor="start" x="249.75" y="-161.5" font-family="Arial" font-size="10.00">returned_at</text>
<polygon fill="none" stroke="black" points="244.75,-132 244.75,-154 308,-154 308,-132 244.75,-132"/>
<text xml:space="preserve" text-anchor="start" x="249.75" y="-139.5" font-family="Arial" font-size="10.00">created_at</text>
<polygon fill="none" stroke="black" points="244.75,-110 244.75,-132 308,-132 308,-110 244.75,-110"/>
<text xml:space="preserve" text-anchor="start" x="249.75" y="-117.5" font-family="Arial" font-size="10.00">updated_at</text>
</g>
<!-- USER&#45;&gt;LOAN -->
<g id="edge1" class="edge">
<title>USER&#45;&gt;LOAN</title>
<path fill="none" stroke="blue" stroke-width="2" d="M110.62,-296.87C143.31,-279.43 191.85,-253.55 227.78,-234.39"/>
<polygon fill="blue" stroke="blue" stroke-width="2" points="227.67,-234.44 238.61,-233.71 232.67,-231.77 235.9,-230.05 235.9,-230.05 235.9,-230.05 232.67,-231.77 234.38,-225.77 227.67,-234.44"/>
<text xml:space="preserve" text-anchor="middle" x="183.88" y="-277.18" font-family="Arial" font-size="9.00">1 &#160;has many &#160;N</text>
<text xml:space="preserve" text-anchor="middle" x="233.71" y="-220.87" font-family="Arial" font-size="9.00">N</text>
<text xml:space="preserve" text-anchor="middle" x="113.24" y="-288.32" font-family="Arial" font-size="9.00">1</text>
</g>
<!-- BOOK -->
<g id="node2" class="node">
<title>BOOK</title>
<polygon fill="lightblue" stroke="none" points="110.75,-206 36.75,-206 36.75,0 110.75,0 110.75,-206"/>
<polygon fill="darkgreen" stroke="none" points="44.75,-180 44.75,-202 102.75,-202 102.75,-180 44.75,-180"/>
<polygon fill="none" stroke="black" points="44.75,-180 44.75,-202 102.75,-202 102.75,-180 44.75,-180"/>
<text xml:space="preserve" text-anchor="start" x="58.75" y="-188.5" font-family="Arial" font-weight="bold" font-size="10.00" fill="white">BOOK</text>
<polygon fill="none" stroke="black" points="44.75,-158 44.75,-180 102.75,-180 102.75,-158 44.75,-158"/>
<text xml:space="preserve" text-anchor="start" x="49.75" y="-166.5" font-family="Arial" text-decoration="underline" font-size="10.00">PK: id</text>
<polygon fill="none" stroke="black" points="44.75,-136 44.75,-158 102.75,-158 102.75,-136 44.75,-136"/>
<text xml:space="preserve" text-anchor="start" x="49.75" y="-143.5" font-family="Arial" font-size="10.00">title</text>
<polygon fill="none" stroke="black" points="44.75,-114 44.75,-136 102.75,-136 102.75,-114 44.75,-114"/>
<text xml:space="preserve" text-anchor="start" x="49.75" y="-121.5" font-family="Arial" font-size="10.00">author</text>
<polygon fill="none" stroke="black" points="44.75,-92 44.75,-114 102.75,-114 102.75,-92 44.75,-92"/>
<text xml:space="preserve" text-anchor="start" x="49.75" y="-99.5" font-family="Arial" font-size="10.00">isbn</text>
<polygon fill="none" stroke="black" points="44.75,-70 44.75,-92 102.75,-92 102.75,-70 44.75,-70"/>
<text xml:space="preserve" text-anchor="start" x="49.75" y="-77.5" font-family="Arial" font-size="10.00">genre</text>
<polygon fill="none" stroke="black" points="44.75,-48 44.75,-70 102.75,-70 102.75,-48 44.75,-48"/>
<text xml:space="preserve" text-anchor="start" x="49.75" y="-55.5" font-family="Arial" font-size="10.00">image</text>
<polygon fill="none" stroke="black" points="44.75,-26 44.75,-48 102.75,-48 102.75,-26 44.75,-26"/>
<text xml:space="preserve" text-anchor="start" x="49.75" y="-33.5" font-family="Arial" font-size="10.00">created_at</text>
<polygon fill="none" stroke="black" points="44.75,-4 44.75,-26 102.75,-26 102.75,-4 44.75,-4"/>
<text xml:space="preserve" text-anchor="start" x="49.75" y="-11.5" font-family="Arial" font-size="10.00">updated_at</text>
</g>
<!-- BOOK&#45;&gt;LOAN -->
<g id="edge2" class="edge">
<title>BOOK&#45;&gt;LOAN</title>
<path fill="none" stroke="green" stroke-width="2" d="M110.62,-121.95C143.31,-139.22 191.85,-164.87 227.78,-183.85"/>
<polygon fill="green" stroke="green" stroke-width="2" points="227.65,-183.79 234.39,-192.44 232.66,-186.43 235.9,-188.14 235.9,-188.14 235.9,-188.14 232.66,-186.43 238.6,-184.48 227.65,-183.79"/>
<text xml:space="preserve" text-anchor="middle" x="183.88" y="-179.63" font-family="Arial" font-size="9.00">1 &#160;borrowed in &#160;N</text>
<text xml:space="preserve" text-anchor="middle" x="233.71" y="-180.22" font-family="Arial" font-size="9.00">N</text>
<text xml:space="preserve" text-anchor="middle" x="113.24" y="-113.4" font-family="Arial" font-size="9.00">1</text>
</g>
<!-- legend -->
<g id="node4" class="node">
<title>legend</title>
<polygon fill="lightyellow" stroke="none" points="131,-544 16.5,-544 16.5,-426 131,-426 131,-544"/>
<polygon fill="gray" stroke="none" points="24.5,-518 24.5,-540 123,-540 123,-518 24.5,-518"/>
<polygon fill="none" stroke="black" points="24.5,-518 24.5,-540 123,-540 123,-518 24.5,-518"/>
<text xml:space="preserve" text-anchor="start" x="56.5" y="-526.5" font-family="Arial" font-weight="bold" font-size="10.00" fill="white">Legend</text>
<polygon fill="none" stroke="black" points="24.5,-496 24.5,-518 123,-518 123,-496 24.5,-496"/>
<text xml:space="preserve" text-anchor="start" x="29.5" y="-503.5" font-family="Arial" font-size="10.00">PK = Primary Key</text>
<polygon fill="none" stroke="black" points="24.5,-474 24.5,-496 123,-496 123,-474 24.5,-474"/>
<text xml:space="preserve" text-anchor="start" x="29.5" y="-481.5" font-family="Arial" font-size="10.00">FK = Foreign Key</text>
<polygon fill="none" stroke="black" points="24.5,-452 24.5,-474 123,-474 123,-452 24.5,-452"/>
<text xml:space="preserve" text-anchor="start" x="29.5" y="-459.5" font-family="Arial" font-size="10.00">1:N = One&#45;to&#45;Many</text>
<polygon fill="none" stroke="black" points="24.5,-430 24.5,-452 123,-452 123,-430 24.5,-430"/>
<text xml:space="preserve" text-anchor="start" x="29.5" y="-437.5" font-family="Arial" font-size="10.00">M:N via LOAN table</text>
</g>
</g>
</svg>
