<?xml version="1.0" encoding="UTF-8" standalone="no"?>
<!DOCTYPE svg PUBLIC "-//W3C//DTD SVG 1.1//EN"
 "http://www.w3.org/Graphics/SVG/1.1/DTD/svg11.dtd">
<!-- Generated by graphviz version 14.1.1 (0)
 -->
<!-- Title: ER Pages: 1 -->
<svg width="341pt" height="462pt"
 viewBox="0.00 0.00 341.00 462.00" xmlns="http://www.w3.org/2000/svg" xmlns:xlink="http://www.w3.org/1999/xlink">
<g id="graph0" class="graph" transform="scale(1 1) rotate(0) translate(4 457.5)">
<title>ER</title>
<polygon fill="white" stroke="none" points="-4,4 -4,-457.5 336.5,-457.5 336.5,4 -4,4"/>
<text xml:space="preserve" text-anchor="middle" x="166.25" y="-434.3" font-family="Arial Bold" font-size="16.00">Bibliotēkas Grāmatu Pārvaldības Sistēma</text>
<text xml:space="preserve" text-anchor="middle" x="166.25" y="-415.55" font-family="Arial Bold" font-size="16.00">Entity&#45;Relationship Diagram</text>
<!-- USER -->
<g id="node1" class="node">
<title>USER</title>
<polygon fill="none" stroke="black" points="79.62,-382 79.62,-404 137.62,-404 137.62,-382 79.62,-382"/>
<text xml:space="preserve" text-anchor="start" x="94.38" y="-390.5" font-family="Arial" font-weight="bold" font-size="10.00">USER</text>
<polygon fill="none" stroke="black" points="79.62,-360 79.62,-382 137.62,-382 137.62,-360 79.62,-360"/>
<text xml:space="preserve" text-anchor="start" x="84.62" y="-368.5" font-family="Arial" text-decoration="underline" font-size="10.00">PK: id</text>
<polygon fill="none" stroke="black" points="79.62,-338 79.62,-360 137.62,-360 137.62,-338 79.62,-338"/>
<text xml:space="preserve" text-anchor="start" x="84.62" y="-345.5" font-family="Arial" font-size="10.00">name</text>
<polygon fill="none" stroke="black" points="79.62,-316 79.62,-338 137.62,-338 137.62,-316 79.62,-316"/>
<text xml:space="preserve" text-anchor="start" x="84.62" y="-323.5" font-family="Arial" font-size="10.00">email</text>
<polygon fill="none" stroke="black" points="79.62,-294 79.62,-316 137.62,-316 137.62,-294 79.62,-294"/>
<text xml:space="preserve" text-anchor="start" x="84.62" y="-301.5" font-family="Arial" font-size="10.00">password</text>
<polygon fill="none" stroke="black" points="79.62,-272 79.62,-294 137.62,-294 137.62,-272 79.62,-272"/>
<text xml:space="preserve" text-anchor="start" x="84.62" y="-279.5" font-family="Arial" font-size="10.00">role</text>
<polygon fill="none" stroke="black" points="79.62,-250 79.62,-272 137.62,-272 137.62,-250 79.62,-250"/>
<text xml:space="preserve" text-anchor="start" x="84.62" y="-257.5" font-family="Arial" font-size="10.00">created_at</text>
<polygon fill="none" stroke="black" points="79.62,-228 79.62,-250 137.62,-250 137.62,-228 79.62,-228"/>
<text xml:space="preserve" text-anchor="start" x="84.62" y="-235.5" font-family="Arial" font-size="10.00">updated_at</text>
</g>
<!-- LOAN -->
<g id="node3" class="node">
<title>LOAN</title>
<polygon fill="none" stroke="black" points="189.62,-286 189.62,-308 252.88,-308 252.88,-286 189.62,-286"/>
<text xml:space="preserve" text-anchor="start" x="207" y="-294.5" font-family="Arial" font-weight="bold" font-size="10.00">LOAN</text>
<polygon fill="none" stroke="black" points="189.62,-264 189.62,-286 252.88,-286 252.88,-264 189.62,-264"/>
<text xml:space="preserve" text-anchor="start" x="194.62" y="-272.5" font-family="Arial" text-decoration="underline" font-size="10.00">PK: id</text>
<polygon fill="none" stroke="black" points="189.62,-242 189.62,-264 252.88,-264 252.88,-242 189.62,-242"/>
<text xml:space="preserve" text-anchor="start" x="194.62" y="-250.5" font-family="Arial" font-style="italic" font-size="10.00">FK: user_id</text>
<polygon fill="none" stroke="black" points="189.62,-220 189.62,-242 252.88,-242 252.88,-220 189.62,-220"/>
<text xml:space="preserve" text-anchor="start" x="194.62" y="-228.5" font-family="Arial" font-style="italic" font-size="10.00">FK: book_id</text>
<polygon fill="none" stroke="black" points="189.62,-198 189.62,-220 252.88,-220 252.88,-198 189.62,-198"/>
<text xml:space="preserve" text-anchor="start" x="194.62" y="-205.5" font-family="Arial" font-size="10.00">borrowed_at</text>
<polygon fill="none" stroke="black" points="189.62,-176 189.62,-198 252.88,-198 252.88,-176 189.62,-176"/>
<text xml:space="preserve" text-anchor="start" x="194.62" y="-183.5" font-family="Arial" font-size="10.00">due_date</text>
<polygon fill="none" stroke="black" points="189.62,-154 189.62,-176 252.88,-176 252.88,-154 189.62,-154"/>
<text xml:space="preserve" text-anchor="start" x="194.62" y="-161.5" font-family="Arial" font-size="10.00">returned_at</text>
<polygon fill="none" stroke="black" points="189.62,-132 189.62,-154 252.88,-154 252.88,-132 189.62,-132"/>
<text xml:space="preserve" text-anchor="start" x="194.62" y="-139.5" font-family="Arial" font-size="10.00">created_at</text>
<polygon fill="none" stroke="black" points="189.62,-110 189.62,-132 252.88,-132 252.88,-110 189.62,-110"/>
<text xml:space="preserve" text-anchor="start" x="194.62" y="-117.5" font-family="Arial" font-size="10.00">updated_at</text>
</g>
<!-- USER&#45;&gt;LOAN -->
<g id="edge1" class="edge">
<title>USER&#45;&gt;LOAN</title>
<path fill="none" stroke="black" stroke-width="2" d="M145.54,-281.26C154.7,-272.4 164.67,-262.75 174.26,-253.48"/>
<polygon fill="black" stroke="black" stroke-width="2" points="174.18,-253.56 184.49,-249.85 178.25,-249.62 180.88,-247.08 180.88,-247.08 180.88,-247.08 178.25,-249.62 178.24,-243.38 174.18,-253.56"/>
<text xml:space="preserve" text-anchor="middle" x="178.47" y="-237.6" font-family="Arial" font-size="9.00">N</text>
<text xml:space="preserve" text-anchor="middle" x="148.17" y="-272.71" font-family="Arial" font-size="9.00">1</text>
</g>
<!-- BOOK -->
<g id="node2" class="node">
<title>BOOK</title>
<polygon fill="none" stroke="black" points="79.62,-180 79.62,-202 137.62,-202 137.62,-180 79.62,-180"/>
<text xml:space="preserve" text-anchor="start" x="93.62" y="-188.5" font-family="Arial" font-weight="bold" font-size="10.00">BOOK</text>
<polygon fill="none" stroke="black" points="79.62,-158 79.62,-180 137.62,-180 137.62,-158 79.62,-158"/>
<text xml:space="preserve" text-anchor="start" x="84.62" y="-166.5" font-family="Arial" text-decoration="underline" font-size="10.00">PK: id</text>
<polygon fill="none" stroke="black" points="79.62,-136 79.62,-158 137.62,-158 137.62,-136 79.62,-136"/>
<text xml:space="preserve" text-anchor="start" x="84.62" y="-143.5" font-family="Arial" font-size="10.00">title</text>
<polygon fill="none" stroke="black" points="79.62,-114 79.62,-136 137.62,-136 137.62,-114 79.62,-114"/>
<text xml:space="preserve" text-anchor="start" x="84.62" y="-121.5" font-family="Arial" font-size="10.00">author</text>
<polygon fill="none" stroke="black" points="79.62,-92 79.62,-114 137.62,-114 137.62,-92 79.62,-92"/>
<text xml:space="preserve" text-anchor="start" x="84.62" y="-99.5" font-family="Arial" font-size="10.00">isbn</text>
<polygon fill="none" stroke="black" points="79.62,-70 79.62,-92 137.62,-92 137.62,-70 79.62,-70"/>
<text xml:space="preserve" text-anchor="start" x="84.62" y="-77.5" font-family="Arial" font-size="10.00">genre</text>
<polygon fill="none" stroke="black" points="79.62,-48 79.62,-70 137.62,-70 137.62,-48 79.62,-48"/>
<text xml:space="preserve" text-anchor="start" x="84.62" y="-55.5" font-family="Arial" font-size="10.00">image</text>
<polygon fill="none" stroke="black" points="79.62,-26 79.62,-48 137.62,-48 137.62,-26 79.62,-26"/>
<text xml:space="preserve" text-anchor="start" x="84.62" y="-33.5" font-family="Arial" font-size="10.00">created_at</text>
<polygon fill="none" stroke="black" points="79.62,-4 79.62,-26 137.62,-26 137.62,-4 79.62,-4"/>
<text xml:space="preserve" text-anchor="start" x="84.62" y="-11.5" font-family="Arial" font-size="10.00">updated_at</text>
</g>
<!-- BOOK&#45;&gt;LOAN -->
<g id="edge2" class="edge">
<title>BOOK&#45;&gt;LOAN</title>
<path fill="none" stroke="black" stroke-width="2" d="M145.54,-137.42C154.7,-146.19 164.67,-155.75 174.26,-164.93"/>
<polygon fill="black" stroke="black" stroke-width="2" points="174.14,-164.82 178.25,-174.99 178.23,-168.74 180.88,-171.27 180.88,-171.27 180.88,-171.27 178.23,-168.74 184.48,-168.49 174.14,-164.82"/>
<text xml:space="preserve" text-anchor="middle" x="178.47" y="-163.65" font-family="Arial" font-size="9.00">N</text>
<text xml:space="preserve" text-anchor="middle" x="148.17" y="-128.87" font-family="Arial" font-size="9.00">1</text>
</g>
</g>
</svg>
